<svg width="19" height="17" viewBox="0 0 19 17" fill="none" xmlns="http://www.w3.org/2000/svg">
<path id="Vector" d="M10.8813 0.126587H7.31876C6.31876 0.126587 5.38126 0.321899 4.50626 0.712524C3.63126 1.08752 2.86954 1.60315 2.2211 2.2594C1.57266 2.91565 1.05313 3.68127 0.662506 4.55627C0.287506 5.43127 0.100006 6.36096 0.100006 7.34534C0.100006 8.45471 0.334381 9.49768 0.803131 10.4742C1.27188 11.4508 1.92813 12.2828 2.77188 12.9703L2.18594 15.0328C2.10782 15.3141 2.11172 15.5914 2.19766 15.8649C2.2836 16.1383 2.43594 16.361 2.65469 16.5328C2.79532 16.6422 2.94376 16.7242 3.10001 16.7789C3.25626 16.8336 3.41251 16.861 3.56876 16.861C3.69376 16.861 3.81094 16.8492 3.92032 16.8258C4.02969 16.8024 4.13126 16.7672 4.22501 16.7203L8.44376 14.5875H10.8813C11.8813 14.5875 12.8188 14.3922 13.6938 14.0016C14.5688 13.6266 15.3305 13.111 15.9789 12.4547C16.6273 11.7985 17.1469 11.0328 17.5375 10.1578C17.9125 9.28284 18.1 8.34534 18.1 7.34534C18.1 6.36096 17.9125 5.43127 17.5375 4.55627C17.1469 3.68127 16.6273 2.91565 15.9789 2.2594C15.3305 1.60315 14.5688 1.08752 13.6938 0.712524C12.8188 0.321899 11.8813 0.126587 10.8813 0.126587Z" fill="black" fill-opacity="0.56"/>
</svg>
