<svg width="19" height="13" viewBox="0 0 19 13" fill="none" xmlns="http://www.w3.org/2000/svg">
<path id="Vector" d="M16.7678 10.1266C17.1116 10.1266 17.4045 10.2477 17.6467 10.4899C17.8889 10.7321 18.01 11.0328 18.01 11.3922C18.01 11.736 17.8889 12.0289 17.6467 12.2711C17.4045 12.5133 17.1116 12.6344 16.7678 12.6344C16.4241 12.6344 16.1272 12.5133 15.8772 12.2711C15.6272 12.0289 15.5022 11.736 15.5022 11.3922C15.5022 11.0328 15.6272 10.7321 15.8772 10.4899C16.1272 10.2477 16.4241 10.1266 16.7678 10.1266ZM12.5022 10.3844C12.7834 10.3844 13.0217 10.4821 13.217 10.6774C13.4123 10.8727 13.51 11.111 13.51 11.3922C13.51 11.6578 13.4123 11.8883 13.217 12.0836C13.0217 12.2789 12.7834 12.3766 12.5022 12.3766H1.01781C0.736557 12.3766 0.498276 12.2789 0.302963 12.0836C0.107651 11.8883 0.00999451 11.6578 0.00999451 11.3922C0.00999451 11.111 0.107651 10.8727 0.302963 10.6774C0.498276 10.4821 0.736557 10.3844 1.01781 10.3844H12.5022ZM16.7678 5.1344C17.1116 5.1344 17.4045 5.25549 17.6467 5.49768C17.8889 5.73987 18.01 6.03284 18.01 6.37659C18.01 6.72034 17.8889 7.01721 17.6467 7.26721C17.4045 7.51721 17.1116 7.64221 16.7678 7.64221C16.4241 7.64221 16.1272 7.51721 15.8772 7.26721C15.6272 7.01721 15.5022 6.72034 15.5022 6.37659C15.5022 6.03284 15.6272 5.73987 15.8772 5.49768C16.1272 5.25549 16.4241 5.1344 16.7678 5.1344ZM12.5022 5.39221C12.7834 5.39221 13.0217 5.48987 13.217 5.68518C13.4123 5.88049 13.51 6.11096 13.51 6.37659C13.51 6.65784 13.4123 6.89612 13.217 7.09143C13.0217 7.28674 12.7834 7.3844 12.5022 7.3844H1.01781C0.736557 7.3844 0.498276 7.28674 0.302963 7.09143C0.107651 6.89612 0.00999451 6.65784 0.00999451 6.37659C0.00999451 6.11096 0.107651 5.88049 0.302963 5.68518C0.498276 5.48987 0.736557 5.39221 1.01781 5.39221H12.5022ZM16.7678 0.142212C17.1116 0.142212 17.4045 0.263306 17.6467 0.505493C17.8889 0.747681 18.01 1.04065 18.01 1.3844C18.01 1.72815 17.8889 2.02112 17.6467 2.26331C17.4045 2.50549 17.1116 2.62659 16.7678 2.62659C16.4241 2.62659 16.1272 2.50549 15.8772 2.26331C15.6272 2.02112 15.5022 1.72815 15.5022 1.3844C15.5022 1.04065 15.6272 0.747681 15.8772 0.505493C16.1272 0.263306 16.4241 0.142212 16.7678 0.142212ZM12.5022 0.376587C12.7834 0.376587 13.0217 0.474243 13.217 0.669556C13.4123 0.864868 13.51 1.10315 13.51 1.3844C13.51 1.65002 13.4123 1.8844 13.217 2.08752C13.0217 2.29065 12.7834 2.39221 12.5022 2.39221H1.01781C0.736557 2.39221 0.498276 2.29065 0.302963 2.08752C0.107651 1.8844 0.00999451 1.65002 0.00999451 1.3844C0.00999451 1.10315 0.107651 0.864868 0.302963 0.669556C0.498276 0.474243 0.736557 0.376587 1.01781 0.376587H12.5022Z" fill="black" fill-opacity="0.56"/>
</svg>
