<svg width="45" height="28" viewBox="0 0 45 28" fill="none" xmlns="http://www.w3.org/2000/svg">
<path id="Vector" fill-rule="evenodd" clip-rule="evenodd" d="M15.3634 20.0369H15.1514C14.7807 19.9791 14.4477 19.7774 14.2249 19.4756C14.0021 19.1737 13.9074 18.7962 13.9614 18.4249C14.9074 12.1909 15.2214 2.24088 15.2214 2.17088C15.2914 1.39888 15.8874 0.770877 16.6934 0.804877C17.0625 0.821408 17.4109 0.980155 17.6655 1.24785C17.9201 1.51555 18.0613 1.87141 18.0594 2.24088C18.0594 2.66088 17.7094 12.4349 16.7634 18.8469C16.7128 19.1807 16.5432 19.485 16.2859 19.7037C16.0286 19.9224 15.701 20.0407 15.3634 20.0369ZM35.4374 22.6289C35.1395 22.6303 34.8491 22.5358 34.6092 22.3593C34.3693 22.1828 34.1926 21.9337 34.1054 21.6489C34.0473 21.4742 34.0249 21.2896 34.0394 21.1061C34.0539 20.9226 34.1051 20.7439 34.19 20.5805C34.2748 20.4171 34.3916 20.2724 34.5334 20.155C34.6752 20.0376 34.8391 19.9498 35.0154 19.8969C41.6354 17.7969 41.7414 16.1829 41.7774 15.3069C41.8474 13.9409 40.7974 12.1909 40.3774 11.5949C40.1588 11.2931 40.0691 10.9168 40.128 10.5488C40.1869 10.1809 40.3896 9.85142 40.6914 9.63288C40.9932 9.41434 41.3695 9.32465 41.7374 9.38353C42.1054 9.44242 42.4348 9.64506 42.6534 9.94688C42.8634 10.2269 44.7534 12.8549 44.5794 15.4829C44.4054 18.6709 41.9514 20.6329 35.8574 22.5949C35.7871 22.5965 35.7169 22.6025 35.6474 22.6129C35.5774 22.6209 35.5074 22.6289 35.4374 22.6289ZM16.4134 27.5689C16.2037 27.5747 15.9956 27.5302 15.8066 27.439C15.6177 27.3479 15.4533 27.2127 15.3274 27.0449C15.2105 26.9017 15.1239 26.7362 15.0728 26.5585C15.0217 26.3808 15.0073 26.1946 15.0303 26.0112C15.0533 25.8278 15.1132 25.6509 15.2066 25.4913C15.3 25.3318 15.4247 25.1928 15.5734 25.0829C18.4454 22.8049 20.3734 20.7729 21.6334 18.9869C20.9334 18.6369 20.1974 18.1109 19.8134 17.2349C19.4614 16.4289 19.2514 15.0969 20.4774 13.3109C22.2294 10.7189 23.9814 10.1229 24.6454 9.98288C25.0763 9.89261 25.5255 9.96887 25.9024 10.1963C26.2794 10.4238 26.5563 10.7856 26.6774 11.2089C26.8534 11.8389 27.2734 13.8369 26.0134 16.8849C27.6934 16.8489 29.0254 16.3949 30.0414 15.5529C32.0014 13.9769 32.1074 11.3129 32.1074 11.2789C32.1239 10.9094 32.2829 10.5608 32.5511 10.3061C32.8192 10.0514 33.1756 9.91044 33.5454 9.91288C33.9145 9.92941 34.2629 10.0882 34.5175 10.3559C34.7721 10.6235 34.9133 10.9794 34.9114 11.3489C34.9114 11.4889 34.7714 15.2369 31.8634 17.6889C30.0414 19.2309 27.5534 19.8969 24.5414 19.6529C23.1054 21.8589 20.8274 24.4529 17.2894 27.2529C17.0414 27.454 16.7327 27.5653 16.4134 27.5689ZM24.0154 13.4169C23.5218 13.8387 23.0967 14.3346 22.7554 14.8869C22.2994 15.5869 22.2634 15.9729 22.2994 16.0789C22.3694 16.2549 22.7194 16.4289 23.0694 16.5689C23.7354 15.2389 23.9454 14.1869 24.0154 13.4169ZM24.3654 23.2609C24.3792 23.6246 24.5322 23.9692 24.7927 24.2234C25.0532 24.4776 25.4014 24.622 25.7654 24.6269H25.8374C25.9434 24.6269 28.2894 24.5569 31.6534 23.7869C31.8359 23.7492 32.0091 23.6755 32.1628 23.5702C32.3165 23.4649 32.4478 23.33 32.5489 23.1735C32.65 23.0169 32.7189 22.8418 32.7516 22.6583C32.7843 22.4749 32.7801 22.2867 32.7394 22.1049C32.7017 21.9224 32.628 21.7492 32.5227 21.5955C32.4174 21.4417 32.2825 21.3105 32.126 21.2094C31.9694 21.1083 31.7943 21.0394 31.6108 21.0067C31.4274 20.974 31.2392 20.9781 31.0574 21.0189C27.9374 21.6829 25.7314 21.7889 25.6974 21.7889C25.3259 21.8085 24.9774 21.9744 24.7278 22.2502C24.4782 22.526 24.3479 22.8893 24.3654 23.2609ZM0.859378 27.0089C1.10338 27.3589 1.55938 27.5689 1.97938 27.5689C2.25938 27.5689 2.53938 27.4989 2.81938 27.3249C11.7194 20.8449 12.0694 12.3649 12.0694 12.0149C12.0694 11.2449 11.4734 10.6149 10.7034 10.5789C9.93138 10.5429 9.30338 11.1749 9.26738 11.9449C9.26738 12.2249 8.91538 19.4069 1.17338 25.0469C1.02361 25.1548 0.896642 25.2913 0.799757 25.4485C0.702872 25.6056 0.637979 25.7803 0.608804 25.9626C0.579628 26.1449 0.586745 26.3312 0.629746 26.5108C0.672746 26.6903 0.750783 26.8596 0.859378 27.0089Z" fill="#A62626"/>
</svg>
