<svg width="14" height="18" viewBox="0 0 14 18" fill="none" xmlns="http://www.w3.org/2000/svg">
<path id="Vector" d="M6.3137 0.488753C7.32932 0.358544 8.29286 0.44969 9.20432 0.76219C10.1158 1.06167 10.9133 1.5174 11.5969 2.12938C12.2805 2.74136 12.8241 3.47703 13.2278 4.33641C13.6314 5.19578 13.8332 6.12026 13.8332 7.10985C13.8332 8.39891 13.5468 9.61636 12.9739 10.7622C12.3879 11.908 11.7304 12.9171 11.0012 13.7895C10.272 14.6619 9.57542 15.3716 8.91135 15.9184C8.26031 16.4653 7.85667 16.7973 7.70042 16.9145L7.66135 16.9536C7.58323 17.0057 7.5051 17.0447 7.42698 17.0708C7.34885 17.0968 7.26422 17.1098 7.17307 17.1098C7.08193 17.1098 6.99729 17.0968 6.91917 17.0708C6.84104 17.0447 6.76292 17.0057 6.68479 16.9536C6.61969 16.9015 6.22255 16.5825 5.49338 15.9966C4.77724 15.3976 4.01878 14.6066 3.21799 13.6235C2.41721 12.6404 1.72385 11.4979 1.13792 10.1958C0.551978 8.8937 0.369687 7.51349 0.591041 6.05516C0.695207 5.32599 0.916562 4.64891 1.2551 4.02391C1.59364 3.38589 2.01682 2.81948 2.52463 2.32469C3.03245 1.8299 3.61187 1.42625 4.26292 1.11375C4.90094 0.788232 5.58453 0.579899 6.3137 0.488753ZM12.1731 7.10985C12.1731 6.36766 12.0233 5.67104 11.7239 5.02C11.4244 4.38198 11.0175 3.83185 10.5032 3.36961C9.98883 2.90737 9.38661 2.56558 8.69651 2.34422C8.01943 2.12287 7.30328 2.05776 6.54807 2.14891C6.01422 2.21401 5.49989 2.36375 5.0051 2.59813C4.52333 2.8325 4.09364 3.12873 3.71604 3.4868C3.33844 3.84487 3.01943 4.25828 2.75901 4.72703C2.49859 5.19578 2.32932 5.69709 2.2512 6.23094C2.09495 7.18146 2.17307 8.10594 2.48557 9.00438C2.79807 9.91584 3.21474 10.7557 3.73557 11.5239C4.25641 12.2921 4.80979 12.9757 5.39573 13.5747C5.99469 14.1736 6.49599 14.6424 6.89963 14.9809C6.97776 15.0591 7.06891 15.0981 7.17307 15.0981C7.27724 15.0981 7.36838 15.0591 7.44651 14.9809C7.82411 14.6684 8.27984 14.2453 8.8137 13.7114C9.36057 13.1776 9.88141 12.5656 10.3762 11.8755C10.871 11.1854 11.2942 10.4367 11.6457 9.62938C11.9973 8.80907 12.1731 7.96922 12.1731 7.10985ZM7.17307 3.77C8.09755 3.77 8.88531 4.09552 9.53635 4.74657C10.1874 5.39761 10.5129 6.18537 10.5129 7.10985C10.5129 8.02131 10.1874 8.80256 9.53635 9.4536C8.88531 10.1046 8.09755 10.4302 7.17307 10.4302C6.24859 10.4302 5.46083 10.1046 4.80979 9.4536C4.15875 8.80256 3.83323 8.02131 3.83323 7.10985C3.83323 6.18537 4.15875 5.39761 4.80979 4.74657C5.46083 4.09552 6.24859 3.77 7.17307 3.77ZM7.17307 5.43016C6.71734 5.43016 6.32672 5.59292 6.0012 5.91844C5.67568 6.24396 5.51292 6.6411 5.51292 7.10985C5.51292 7.56558 5.67568 7.9562 6.0012 8.28172C6.32672 8.60724 6.71734 8.77 7.17307 8.77C7.6288 8.77 8.01943 8.60724 8.34495 8.28172C8.67047 7.9562 8.83323 7.56558 8.83323 7.10985C8.83323 6.6411 8.67047 6.24396 8.34495 5.91844C8.01943 5.59292 7.6288 5.43016 7.17307 5.43016Z" fill="black" fill-opacity="0.32"/>
</svg>
