<svg width="17" height="19" viewBox="0 0 17 19" fill="none" xmlns="http://www.w3.org/2000/svg">
<path id="Vector" d="M11.6922 10.4078C12.3797 10.4078 13.0281 10.5328 13.6375 10.7828C14.2469 11.0485 14.7781 11.4078 15.2312 11.861C15.6844 12.3141 16.0437 12.8453 16.3094 13.4547C16.5594 14.0641 16.6844 14.7125 16.6844 15.4C16.6844 16.2281 16.3914 16.9352 15.8055 17.5211C15.2195 18.1071 14.5125 18.4 13.6844 18.4H3.7C2.87187 18.4 2.16484 18.1071 1.5789 17.5211C0.992966 16.9352 0.699997 16.2281 0.699997 15.4C0.699997 14.7125 0.824997 14.0641 1.075 13.4547C1.34062 12.8453 1.7 12.3141 2.15312 11.861C2.60625 11.4078 3.1375 11.0485 3.74687 10.7828C4.35625 10.5328 5.00468 10.4078 5.69218 10.4078H11.6922ZM8.69218 0.400024C9.80156 0.400024 10.7469 0.790649 11.5281 1.5719C12.3094 2.35315 12.7 3.29846 12.7 4.40784C12.7 5.50159 12.3094 6.43909 11.5281 7.22034C10.7469 8.00159 9.80156 8.39221 8.69218 8.39221C7.58281 8.39221 6.6375 8.00159 5.85625 7.22034C5.075 6.43909 4.68437 5.50159 4.68437 4.40784C4.68437 3.29846 5.075 2.35315 5.85625 1.5719C6.6375 0.790649 7.58281 0.400024 8.69218 0.400024Z" fill="black" fill-opacity="0.56"/>
</svg>
