<svg width="21" height="21" viewBox="0 0 21 21" fill="none" xmlns="http://www.w3.org/2000/svg">
<path id="Vector" d="M14.855 11.4078H11.6206V14.6422C11.6206 14.9235 11.523 15.1617 11.3277 15.3571C11.1323 15.5524 10.8941 15.65 10.6128 15.65C10.3316 15.65 10.0933 15.5524 9.89797 15.3571C9.70266 15.1617 9.605 14.9235 9.605 14.6422V11.4078H6.37062C6.08937 11.4078 5.85109 11.3102 5.65578 11.1149C5.46047 10.9196 5.36281 10.6813 5.36281 10.4C5.36281 10.1188 5.46047 9.88049 5.65578 9.68518C5.85109 9.48987 6.08937 9.39221 6.37062 9.39221H9.605V6.15784C9.605 5.87659 9.70266 5.63831 9.89797 5.44299C10.0933 5.24768 10.3316 5.15002 10.6128 5.15002C10.8941 5.15002 11.1323 5.24768 11.3277 5.44299C11.523 5.63831 11.6206 5.87659 11.6206 6.15784V9.39221H14.855C15.1362 9.39221 15.3745 9.48987 15.5698 9.68518C15.7652 9.88049 15.8628 10.1188 15.8628 10.4C15.8628 10.6813 15.7652 10.9196 15.5698 11.1149C15.3745 11.3102 15.1362 11.4078 14.855 11.4078ZM10.6128 0.392212C9.23781 0.392212 7.94094 0.657837 6.72219 1.18909C5.50344 1.70471 4.44484 2.41565 3.54641 3.3219C2.64797 4.22815 1.93312 5.29065 1.40187 6.5094C0.870625 7.72815 0.605 9.02502 0.605 10.4C0.605 11.775 0.870625 13.0719 1.40187 14.2906C1.93312 15.5094 2.64797 16.5719 3.54641 17.4781C4.44484 18.3844 5.50344 19.0953 6.72219 19.611C7.94094 20.1422 9.23781 20.4078 10.6128 20.4078C11.9878 20.4078 13.2847 20.1422 14.5034 19.611C15.7222 19.0953 16.7808 18.3844 17.6792 17.4781C18.5777 16.5719 19.2925 15.5094 19.8237 14.2906C20.355 13.0719 20.6206 11.775 20.6206 10.4C20.6206 9.02502 20.355 7.72815 19.8237 6.5094C19.2925 5.29065 18.5777 4.22815 17.6792 3.3219C16.7808 2.41565 15.7222 1.70471 14.5034 1.18909C13.2847 0.657837 11.9878 0.392212 10.6128 0.392212Z" fill="black" fill-opacity="0.56"/>
</svg>
