<svg width="16" height="16" viewBox="0 0 16 16" fill="none" xmlns="http://www.w3.org/2000/svg">
<path id="Vector" d="M2.49219 6.94C2.49219 5.69 2.93359 4.6275 3.81641 3.7525C4.69922 2.8775 5.75781 2.44 6.99219 2.44C8.24219 2.44 9.30469 2.8775 10.1797 3.7525C11.0547 4.6275 11.4922 5.69 11.4922 6.94C11.4922 8.17438 11.0547 9.23297 10.1797 10.1158C9.30469 10.9986 8.24219 11.44 6.99219 11.44C5.75781 11.44 4.69922 10.9986 3.81641 10.1158C2.93359 9.23297 2.49219 8.17438 2.49219 6.94ZM15.5703 14.1119L12.2422 10.7603C12.6328 10.2291 12.9414 9.63922 13.168 8.99078C13.3945 8.34235 13.5078 7.65875 13.5078 6.94C13.5078 6.04938 13.3359 5.20563 12.9922 4.40875C12.6484 3.6275 12.1836 2.94 11.5977 2.34625C11.0117 1.7525 10.3203 1.28375 9.52344 0.940002C8.74219 0.611877 7.89844 0.447815 6.99219 0.447815C6.10156 0.447815 5.25781 0.611877 4.46094 0.940002C3.67969 1.28375 2.99609 1.7525 2.41016 2.34625C1.82422 2.94 1.35938 3.6275 1.01562 4.40875C0.671875 5.20563 0.5 6.04938 0.5 6.94C0.5 7.83063 0.671875 8.67438 1.01562 9.47125C1.35938 10.2525 1.82422 10.94 2.41016 11.5338C2.99609 12.1275 3.67969 12.5884 4.46094 12.9166C5.25781 13.2603 6.10156 13.4322 6.99219 13.4322C7.71094 13.4322 8.39453 13.3228 9.04297 13.1041C9.69141 12.8853 10.2813 12.5806 10.8125 12.19L14.1641 15.5181C14.2578 15.6119 14.3672 15.6822 14.4922 15.7291C14.6172 15.7759 14.7422 15.7994 14.8672 15.7994C14.9922 15.7994 15.1172 15.7759 15.2422 15.7291C15.3672 15.6822 15.4766 15.6119 15.5703 15.5181C15.7578 15.315 15.8516 15.0767 15.8516 14.8033C15.8516 14.5298 15.7578 14.2994 15.5703 14.1119Z" fill="black" fill-opacity="0.32"/>
</svg>
