<svg width="13" height="10" viewBox="0 0 13 10" fill="none" xmlns="http://www.w3.org/2000/svg">
<path id="Vector" d="M11.2319 7.48438C11.461 7.48438 11.6564 7.5651 11.8178 7.72656C11.9793 7.88802 12.06 8.08854 12.06 8.32812C12.06 8.55729 11.9793 8.7526 11.8178 8.91406C11.6564 9.07552 11.461 9.15625 11.2319 9.15625C11.0027 9.15625 10.8048 9.07552 10.6381 8.91406C10.4715 8.7526 10.3881 8.55729 10.3881 8.32812C10.3881 8.08854 10.4715 7.88802 10.6381 7.72656C10.8048 7.5651 11.0027 7.48438 11.2319 7.48438ZM8.38812 7.65625C8.57562 7.65625 8.73448 7.72135 8.86469 7.85156C8.99489 7.98177 9.06 8.14062 9.06 8.32812C9.06 8.50521 8.99489 8.65885 8.86469 8.78906C8.73448 8.91927 8.57562 8.98438 8.38812 8.98438H0.731873C0.544373 8.98438 0.385518 8.91927 0.25531 8.78906C0.125102 8.65885 0.0599976 8.50521 0.0599976 8.32812C0.0599976 8.14062 0.125102 7.98177 0.25531 7.85156C0.385518 7.72135 0.544373 7.65625 0.731873 7.65625H8.38812ZM11.2319 4.15625C11.461 4.15625 11.6564 4.23698 11.8178 4.39844C11.9793 4.5599 12.06 4.75521 12.06 4.98438C12.06 5.21354 11.9793 5.41146 11.8178 5.57812C11.6564 5.74479 11.461 5.82812 11.2319 5.82812C11.0027 5.82812 10.8048 5.74479 10.6381 5.57812C10.4715 5.41146 10.3881 5.21354 10.3881 4.98438C10.3881 4.75521 10.4715 4.5599 10.6381 4.39844C10.8048 4.23698 11.0027 4.15625 11.2319 4.15625ZM8.38812 4.32812C8.57562 4.32812 8.73448 4.39323 8.86469 4.52344C8.99489 4.65365 9.06 4.80729 9.06 4.98438C9.06 5.17188 8.99489 5.33073 8.86469 5.46094C8.73448 5.59115 8.57562 5.65625 8.38812 5.65625H0.731873C0.544373 5.65625 0.385518 5.59115 0.25531 5.46094C0.125102 5.33073 0.0599976 5.17188 0.0599976 4.98438C0.0599976 4.80729 0.125102 4.65365 0.25531 4.52344C0.385518 4.39323 0.544373 4.32812 0.731873 4.32812H8.38812ZM11.2319 0.828125C11.461 0.828125 11.6564 0.908854 11.8178 1.07031C11.9793 1.23177 12.06 1.42708 12.06 1.65625C12.06 1.88542 11.9793 2.08073 11.8178 2.24219C11.6564 2.40365 11.461 2.48438 11.2319 2.48438C11.0027 2.48438 10.8048 2.40365 10.6381 2.24219C10.4715 2.08073 10.3881 1.88542 10.3881 1.65625C10.3881 1.42708 10.4715 1.23177 10.6381 1.07031C10.8048 0.908854 11.0027 0.828125 11.2319 0.828125ZM8.38812 0.984375C8.57562 0.984375 8.73448 1.04948 8.86469 1.17969C8.99489 1.3099 9.06 1.46875 9.06 1.65625C9.06 1.83333 8.99489 1.98958 8.86469 2.125C8.73448 2.26042 8.57562 2.32812 8.38812 2.32812H0.731873C0.544373 2.32812 0.385518 2.26042 0.25531 2.125C0.125102 1.98958 0.0599976 1.83333 0.0599976 1.65625C0.0599976 1.46875 0.125102 1.3099 0.25531 1.17969C0.385518 1.04948 0.544373 0.984375 0.731873 0.984375H8.38812Z" fill="black" fill-opacity="0.56"/>
</svg>
