<svg width="13" height="12" viewBox="0 0 13 12" fill="none" xmlns="http://www.w3.org/2000/svg">
<path id="Vector" d="M6.69998 8C6.88748 8 7.04634 8.0651 7.17654 8.19531C7.30675 8.32552 7.37186 8.48438 7.37186 8.67188V9.32812H12.0281C12.2156 9.32812 12.3745 9.39323 12.5047 9.52344C12.6349 9.65365 12.7 9.8125 12.7 10C12.7 10.1875 12.6349 10.3464 12.5047 10.4766C12.3745 10.6068 12.2156 10.6719 12.0281 10.6719H11.3719H7.37186V11.3281C7.37186 11.5156 7.30675 11.6745 7.17654 11.8047C7.04634 11.9349 6.88748 12 6.69998 12C6.51248 12 6.35363 11.9349 6.22342 11.8047C6.09321 11.6745 6.02811 11.5156 6.02811 11.3281V10.6719V9.32812V8.67188C6.02811 8.48438 6.09321 8.32552 6.22342 8.19531C6.35363 8.0651 6.51248 8 6.69998 8ZM2.02811 9.32812H4.69998V10.6719H1.37186C1.18436 10.6719 1.0255 10.6068 0.895294 10.4766C0.765086 10.3464 0.699982 10.1875 0.699982 10C0.699982 9.8125 0.765086 9.65365 0.895294 9.52344C1.0255 9.39323 1.18436 9.32812 1.37186 9.32812H2.02811ZM4.02811 4C4.21561 4 4.37446 4.0651 4.50467 4.19531C4.63488 4.32552 4.69998 4.48438 4.69998 4.67188V5.32812V6.67188V7.32812C4.69998 7.51562 4.63488 7.67448 4.50467 7.80469C4.37446 7.9349 4.21561 8 4.02811 8C3.85102 8 3.69738 7.9349 3.56717 7.80469C3.43696 7.67448 3.37186 7.51562 3.37186 7.32812V6.67188H1.37186C1.18436 6.67188 1.0255 6.60677 0.895294 6.47656C0.765086 6.34635 0.699982 6.1875 0.699982 6C0.699982 5.8125 0.765086 5.65365 0.895294 5.52344C1.0255 5.39323 1.18436 5.32812 1.37186 5.32812H2.02811H3.37186V4.67188C3.37186 4.48438 3.43696 4.32552 3.56717 4.19531C3.69738 4.0651 3.85102 4 4.02811 4ZM12.0281 5.32812C12.2156 5.32812 12.3745 5.39323 12.5047 5.52344C12.6349 5.65365 12.7 5.8125 12.7 6C12.7 6.1875 12.6349 6.34635 12.5047 6.47656C12.3745 6.60677 12.2156 6.67188 12.0281 6.67188H11.3719H6.02811V5.32812H12.0281ZM9.37186 0C9.54894 0 9.70259 0.0651042 9.83279 0.195312C9.963 0.325521 10.0281 0.484375 10.0281 0.671875V1.32812H12.0281C12.2156 1.32812 12.3745 1.39323 12.5047 1.52344C12.6349 1.65365 12.7 1.8125 12.7 2C12.7 2.1875 12.6349 2.34635 12.5047 2.47656C12.3745 2.60677 12.2156 2.67188 12.0281 2.67188H11.3719H10.0281V3.32812C10.0281 3.51562 9.963 3.67448 9.83279 3.80469C9.70259 3.9349 9.54894 4 9.37186 4C9.18436 4 9.0255 3.9349 8.89529 3.80469C8.76509 3.67448 8.69998 3.51562 8.69998 3.32812V2.67188V1.32812V0.671875C8.69998 0.484375 8.76509 0.325521 8.89529 0.195312C9.0255 0.0651042 9.18436 0 9.37186 0ZM2.02811 1.32812H7.37186V2.67188H1.37186C1.18436 2.67188 1.0255 2.60677 0.895294 2.47656C0.765086 2.34635 0.699982 2.1875 0.699982 2C0.699982 1.8125 0.765086 1.65365 0.895294 1.52344C1.0255 1.39323 1.18436 1.32812 1.37186 1.32812H2.02811Z" fill="black" fill-opacity="0.56"/>
</svg>
