<svg width="16" height="14" viewBox="0 0 16 14" fill="none" xmlns="http://www.w3.org/2000/svg">
<path id="Vector" d="M4.46484 10.7109L4.13281 11.8828L6.88672 10.4766C6.9388 10.4505 6.9974 10.431 7.0625 10.418C7.1276 10.4049 7.19271 10.3984 7.25781 10.3984H9.48438C10.0833 10.3984 10.6432 10.2812 11.1641 10.0469C11.6979 9.82552 12.1634 9.51628 12.5605 9.11914C12.9577 8.72201 13.2669 8.26302 13.4883 7.74219C13.7227 7.20833 13.8398 6.64193 13.8398 6.04297C13.8398 5.44401 13.7227 4.8776 13.4883 4.34375C13.2669 3.82292 12.9577 3.36393 12.5605 2.9668C12.1634 2.56966 11.6979 2.26042 11.1641 2.03906C10.6432 1.80469 10.0833 1.6875 9.48438 1.6875H6.51562C5.91667 1.6875 5.35677 1.80469 4.83594 2.03906C4.30208 2.26042 3.83659 2.56966 3.43945 2.9668C3.04232 3.36393 2.73307 3.82292 2.51172 4.34375C2.27734 4.8776 2.16016 5.44401 2.16016 6.04297C2.16016 6.78516 2.33594 7.47852 2.6875 8.12305C3.03906 8.76758 3.52734 9.29167 4.15234 9.69531C4.32161 9.79948 4.43555 9.94922 4.49414 10.1445C4.55273 10.3398 4.54297 10.5286 4.46484 10.7109ZM3.39062 13.9727C3.26042 13.9727 3.13021 13.9499 3 13.9043C2.86979 13.8587 2.74609 13.7904 2.62891 13.6992C2.44661 13.543 2.31966 13.3509 2.24805 13.123C2.17643 12.8952 2.17318 12.6706 2.23828 12.4492L2.72656 10.7109C2.02344 10.151 1.47656 9.46094 1.08594 8.64062C0.695312 7.82031 0.5 6.95443 0.5 6.04297C0.5 5.20964 0.65625 4.42839 0.96875 3.69922C1.29427 2.97005 1.72721 2.33203 2.26758 1.78516C2.80794 1.23828 3.44271 0.808594 4.17188 0.496094C4.90104 0.183594 5.68229 0.0273438 6.51562 0.0273438H9.48438C10.3177 0.0273438 11.099 0.183594 11.8281 0.496094C12.5573 0.808594 13.1921 1.23828 13.7324 1.78516C14.2728 2.33203 14.7057 2.97005 15.0312 3.69922C15.3438 4.42839 15.5 5.20964 15.5 6.04297C15.5 6.8763 15.3438 7.65755 15.0312 8.38672C14.7057 9.11589 14.2728 9.75391 13.7324 10.3008C13.1921 10.8477 12.5573 11.2773 11.8281 11.5898C11.099 11.9023 10.3177 12.0586 9.48438 12.0586H7.45312L3.9375 13.8359C3.85938 13.888 3.77474 13.9238 3.68359 13.9434C3.59245 13.9629 3.49479 13.9727 3.39062 13.9727Z" fill="black" fill-opacity="0.56"/>
</svg>
